<svg xmlns="http://www.w3.org/2000/svg" viewBox="0 0 24 24" fill="none" stroke="currentColor" stroke-width="2" stroke-linecap="round" stroke-linejoin="round">
  <path d="M9.5 2A5 5 0 0 1 12 4.5A5 5 0 0 1 14.5 2" />
  <path d="M12 4.5V22" />
  <path d="M12 7c-2.5 0-4.5 2-4.5 4.5S9.5 16 12 16s4.5-2 4.5-4.5S14.5 7 12 7z" />
  <path d="M7.5 11.5A3.5 3.5 0 0 1 4 8a3.5 3.5 0 0 1 3.5-3.5" />
  <path d="M16.5 11.5A3.5 3.5 0 0 0 20 8a3.5 3.5 0 0 0-3.5-3.5" />
  <path d="M7.5 14.5A3.5 3.5 0 0 0 4 18a3.5 3.5 0 0 0 3.5 3.5" />
  <path d="M16.5 14.5A3.5 3.5 0 0 1 20 18a3.5 3.5 0 0 1-3.5 3.5" />
</svg>
